<?xml version="1.0" encoding="UTF-8"?>
<!DOCTYPE svg PUBLIC "-//W3C//DTD SVG 1.1//EN" "http://www.w3.org/Graphics/SVG/1.1/DTD/svg11.dtd">
<svg xmlns="http://www.w3.org/2000/svg" version="1.1" width="175px" height="175px" style="shape-rendering:geometricPrecision; text-rendering:geometricPrecision; image-rendering:optimizeQuality; fill-rule:evenodd; clip-rule:evenodd" xmlns:xlink="http://www.w3.org/1999/xlink">
<g><path style="opacity:1" fill="#fefffe" d="M -0.5,-0.5 C 57.8333,-0.5 116.167,-0.5 174.5,-0.5C 174.5,19.8333 174.5,40.1667 174.5,60.5C 173.129,53.9428 169.795,48.4428 164.5,44C 159.334,41.2516 154.334,38.2516 149.5,35C 136.653,30.6139 123.987,25.6139 111.5,20C 104.726,18.2107 97.893,16.7107 91,15.5C 81.6257,17.1707 72.1257,18.0041 62.5,18C 49.428,26.0779 37.928,35.9112 28,47.5C 22.0375,59.7546 16.3708,72.0879 11,84.5C 9.42005,99.12 9.08672,113.787 10,128.5C 12.8498,138.336 18.6832,145.836 27.5,151C 59.8304,167.999 94.1638,174.666 130.5,171C 139.759,167.067 147.925,161.567 155,154.5C 160.433,147.3 165.1,139.634 169,131.5C 171.223,123.099 173.056,114.765 174.5,106.5C 174.5,129.167 174.5,151.833 174.5,174.5C 116.167,174.5 57.8333,174.5 -0.5,174.5C -0.5,116.167 -0.5,57.8333 -0.5,-0.5 Z"/></g>
<g><path style="opacity:1" fill="#000000" d="M 174.5,60.5 C 174.5,75.8333 174.5,91.1667 174.5,106.5C 173.056,114.765 171.223,123.099 169,131.5C 165.1,139.634 160.433,147.3 155,154.5C 147.925,161.567 139.759,167.067 130.5,171C 94.1638,174.666 59.8304,167.999 27.5,151C 18.6832,145.836 12.8498,138.336 10,128.5C 9.08672,113.787 9.42005,99.12 11,84.5C 16.3708,72.0879 22.0375,59.7546 28,47.5C 37.928,35.9112 49.428,26.0779 62.5,18C 72.1257,18.0041 81.6257,17.1707 91,15.5C 97.893,16.7107 104.726,18.2107 111.5,20C 123.987,25.6139 136.653,30.6139 149.5,35C 154.334,38.2516 159.334,41.2516 164.5,44C 169.795,48.4428 173.129,53.9428 174.5,60.5 Z"/></g>
<g><path style="opacity:1" fill="#fefffe" d="M 68.5,34.5 C 78.2104,34.8044 87.8771,34.8044 97.5,34.5C 104.739,35.5233 111.405,38.0233 117.5,42C 129.727,45.8482 141.394,50.8482 152.5,57C 154.377,59.2513 155.877,61.7513 157,64.5C 158.663,84.7528 157.329,104.753 153,124.5C 149.762,130.743 146.095,136.743 142,142.5C 137.397,147.104 132.23,150.938 126.5,154C 93.2017,157.424 62.2017,150.591 33.5,133.5C 31.8509,131.35 30.0176,129.35 28,127.5C 26.3982,115.905 26.0648,104.238 27,92.5C 31.3312,80.834 36.4979,69.5007 42.5,58.5C 50.8865,50.1102 59.5531,42.1102 68.5,34.5 Z"/></g>
<g><path style="opacity:1" fill="#000000" d="M 67.5,53.5 C 76.3649,53.8474 79.5316,58.1807 77,66.5C 71.1857,72.2051 66.1857,71.5384 62,64.5C 61.1757,59.4818 63.0091,55.8152 67.5,53.5 Z"/></g>
<g><path style="opacity:1" fill="#000000" d="M 116.5,63.5 C 125.365,63.8474 128.532,68.1807 126,76.5C 120.186,82.2051 115.186,81.5384 111,74.5C 110.176,69.4818 112.009,65.8152 116.5,63.5 Z"/></g>
<g><path style="opacity:1" fill="#000000" d="M 51.5,82.5 C 61.2404,82.3139 65.0737,86.9806 63,96.5C 64.5429,98.3783 66.3762,99.8783 68.5,101C 75.7627,104.191 83.2627,106.691 91,108.5C 97.684,105.66 104.017,102.327 110,98.5C 116.649,99.7893 119.316,103.789 118,110.5C 116.961,112.746 115.794,114.913 114.5,117C 108.682,119.41 103.015,122.077 97.5,125C 82.6855,124.795 68.6855,121.129 55.5,114C 46.8536,107.541 43.6869,99.0406 46,88.5C 47.0209,85.6499 48.8542,83.6499 51.5,82.5 Z"/></g>
</svg>
